<svg width="1020" height="1000" viewBox="0 0 1020 1000" fill="none" xmlns="http://www.w3.org/2000/svg">
<path d="M1019.71 353.782L510 0.657227L0.287598 353.782V999.742H1019.71V353.782ZM964.613 950.526H55.3965V377.16L510.005 63.4076L964.613 377.16V950.526Z" fill="turquoise"/>
<path d="M510 416.533C482.517 416.525 455.754 424.421 433.683 439.045C411.601 453.67 395.371 474.244 387.396 497.733C374.875 470.853 350.764 449.603 320.506 438.788C290.236 427.966 256.374 428.489 226.546 440.239C196.719 451.988 173.445 473.969 161.981 501.227C150.517 528.476 151.814 558.713 165.604 585.096C132.136 611.616 113.071 649.714 113.253 689.676V826.25H339.179V871.773L680.824 871.781V826.25H906.75V689.676C906.933 649.714 887.868 611.618 854.399 585.096C868.189 558.713 869.486 528.476 858.022 501.227C846.558 473.969 823.284 451.989 793.457 440.239C763.629 428.489 729.765 427.966 699.497 438.788C669.237 449.602 645.126 470.853 632.607 497.733C624.631 474.243 608.401 453.669 586.32 439.045C564.247 424.421 537.484 416.524 510.003 416.533L510 416.533ZM631.231 588.785L622.967 582.631L628.473 570.324L635.363 585.086L631.231 588.785ZM510 465.745C529.363 465.745 547.938 472.611 561.63 484.841C575.324 497.071 583.011 513.661 583.011 530.955C583.011 548.249 575.324 564.839 561.63 577.069C547.937 589.299 529.362 596.165 510 596.165C490.637 596.165 472.062 589.299 458.369 577.069C444.676 564.838 436.988 548.249 436.988 530.955C436.988 513.661 444.676 497.071 458.369 484.841C472.063 472.611 490.637 465.745 510 465.745ZM388.769 588.785L383.262 585.094L390.152 570.332L395.659 582.64L388.769 588.785ZM275.8 478.053H275.81C293.261 478.371 309.866 484.851 321.992 496.068C334.119 507.277 340.788 522.322 340.547 537.908C340.307 553.503 333.177 568.376 320.704 579.285C308.231 590.193 291.435 596.261 273.984 596.15C256.523 596.047 239.822 589.782 227.522 578.719C215.212 567.655 208.313 552.696 208.303 537.109C208.303 521.446 215.27 506.417 227.675 495.346C240.072 484.274 256.888 478.052 274.425 478.052L275.8 478.053ZM168.357 777.041V689.678C168.569 664.393 180.542 640.328 201.415 623.241C222.479 637.908 248.413 645.873 275.119 645.873C301.825 645.873 327.758 637.909 348.823 623.241L355.713 630.622C344.893 650.568 339.243 672.435 339.175 694.605V778.267L168.357 777.041ZM625.721 822.563H394.279V693.378C394.25 665.14 407.79 638.251 431.467 619.549C453.837 635.316 481.503 643.889 509.995 643.889C538.487 643.889 566.152 635.315 588.523 619.549C612.201 638.251 625.74 665.14 625.711 693.378L625.721 822.563ZM851.647 777.041H680.822V693.378C680.755 671.209 675.105 649.34 664.284 629.395L671.174 623.241C692.238 637.909 718.173 645.874 744.878 645.874C771.584 645.874 797.517 637.909 818.582 623.241C839.589 640.235 851.601 664.36 851.64 689.678L851.647 777.041ZM745.569 478.053C763.107 478.053 779.923 484.276 792.319 495.347C804.725 506.419 811.692 521.447 811.692 537.111C811.692 552.774 804.725 567.794 792.319 578.874C779.923 589.946 763.107 596.168 745.569 596.168C728.032 596.168 711.206 589.946 698.81 578.874C686.404 567.794 679.437 552.774 679.437 537.111C679.437 521.447 686.404 506.419 698.81 495.347C711.206 484.276 728.032 478.053 745.569 478.053Z" fill="black"/>
</svg>
